<svg id="Bold" enable-background="new 0 0 24 24" height="512" viewBox="0 0 24 24" width="512" xmlns="http://www.w3.org/2000/svg"><g><path d="m7 13.859v9.391c0 .285.162.546.418.672.254.126.561.097.788-.077l3.794-2.901 3.794 2.901c.134.103.294.155.456.155.113 0 .227-.025.332-.078.256-.126.418-.387.418-.672v-9.391c-1.405 1.027-3.13 1.641-5 1.641s-3.595-.614-5-1.641z"/></g><g><path d="m12 0c-3.86 0-7 3.14-7 7s3.14 7 7 7 7-3.14 7-7-3.14-7-7-7zm1 10.25c0 .414-.336.75-.75.75s-.75-.336-.75-.75v-4.792c-.292-.104-.5-.381-.5-.708 0-.414.336-.75.75-.75h.5c.414 0 .75.336.75.75z"/></g></svg>